<?xml version="1.0" encoding="utf-8"?>
<svg viewBox="0 0 300 300" preserveAspectRatio="xMinYMin" width="300px" height="300px" xmlns="http://www.w3.org/2000/svg">
  <path d="M 23.229 124.214 L 131.91 77.619 L 240.594 124.221 L 240.594 217.418 L 131.913 264.02 L 23.229 217.418 Z M 129.418 149.53 C 115.796 149.53 104.753 157.735 104.753 167.847 C 104.753 177.96 115.796 186.162 129.418 186.162 C 143.04 186.162 154.082 177.96 154.082 167.847 C 154.082 157.735 143.04 149.53 129.418 149.53 Z" style="stroke: rgb(193, 116, 0); paint-order: fill; fill: rgb(255, 224, 173); stroke-width: 4px;"/>
  <path d="M 40.069 102.056 L 148.75 55.455 L 257.434 102.056 L 257.434 195.253 L 148.753 241.862 L 40.069 195.253 Z M 146.259 127.365 C 132.636 127.365 121.593 135.57 121.593 145.686 C 121.593 155.799 132.636 163.997 146.259 163.997 C 159.88 163.997 170.923 155.799 170.923 145.686 C 170.923 135.57 159.88 127.365 146.259 127.365 Z" style="paint-order: fill; fill-opacity: 0.5; fill: rgb(248, 173, 255); stroke: rgba(148, 0, 193, 0.69); stroke-width: 4px;"/>
  <path d="M 58.184 80.243 L 166.865 33.645 L 275.549 80.243 L 275.549 173.447 L 166.865 220.049 L 58.184 173.447 Z M 164.366 105.559 C 150.751 105.559 139.705 113.757 139.705 123.873 C 139.705 133.993 150.751 142.191 164.366 142.191 C 177.995 142.191 189.03 133.993 189.03 123.873 C 189.03 113.757 177.995 105.559 164.366 105.559 Z" style="paint-order: fill; fill-opacity: 0.5; stroke: rgba(0, 67, 193, 0.69); fill: rgb(173, 187, 255); stroke-width: 4px;"/>
</svg>